<?xml version="1.0" encoding="UTF-8"?>
<svg width="50px" height="50px" viewBox="0 0 50 50" version="1.1" xmlns="http://www.w3.org/2000/svg" xmlns:xlink="http://www.w3.org/1999/xlink">
    <title>Icon feather-image</title>
    <g id="null" stroke="none" stroke-width="1" fill="none" fill-rule="evenodd" stroke-linecap="round" stroke-linejoin="round">
        <g id="Background-" transform="translate(-1019.000000, -879.000000)" stroke="#CBCBCB" stroke-width="3">
            <g id="Group-39" transform="translate(449.000000, 190.000000)">
                <g id="Group-44" transform="translate(445.000000, 130.000000)">
                    <g id="Group-43" transform="translate(0.000000, 110.000000)">
                        <g id="Group-58" transform="translate(50.000000, 50.000000)">
                            <g id="Group-48" transform="translate(0.000000, 348.000000)">
                                <g id="Icon-feather-image" transform="translate(76.777350, 52.777100)">
                                    <path d="M5.15863308,-0.00290036156 C29.2446423,-0.00290036156 41.287647,-0.00290036156 41.287647,-0.00290036156 C44.1381523,-0.00290036156 46.4489304,2.3078877 46.4489304,5.15838305 C46.4489304,5.15838305 46.4489304,41.2873969 46.4489304,41.2873969 C46.4489304,44.1379023 44.1381423,46.4486804 41.287647,46.4486804 C41.287647,46.4486804 5.15863308,46.4486804 5.15863308,46.4486804 C2.30812773,46.4486804 -0.00265033039,44.1378923 -0.00265033039,41.2873969 C-0.00265033039,41.2873969 -0.00265033039,5.15838305 -0.00265033039,5.15838305 C-0.00265033039,2.3078777 2.30813774,-0.00291036281 5.15864308,-0.00290036156 C5.15864308,-0.00290036156 5.15863975,-0.00290036156 5.15863308,-0.00290036156 Z" id="Path-21"></path>
                                    <path d="M18.06185,14.1906399 C18.06185,16.328515 16.328765,18.0615999 14.1908899,18.0615999 C12.0530148,18.0615999 10.3199298,16.328515 10.3199298,14.1906399 C10.3199298,12.0527647 12.0530148,10.3196798 14.1908899,10.3196798 C16.328765,10.3196798 18.06185,12.0527647 18.06185,14.1906399 Z" id="Path-22"></path>
                                    <polyline id="Path-23" points="46.4489304 30.9648392 33.5457108 18.0616199 5.15862975 46.4487004"></polyline>
                                </g>
                            </g>
                        </g>
                    </g>
                </g>
            </g>
        </g>
    </g>
</svg>