<?xml version="1.0" encoding="UTF-8"?>
<svg width="25px" height="24px" viewBox="0 0 25 24" version="1.1" xmlns="http://www.w3.org/2000/svg" xmlns:xlink="http://www.w3.org/1999/xlink">
    <title>plus</title>
    <g id="null" stroke="none" stroke-width="1" fill="none" fill-rule="evenodd">
        <g id="Create-a-Project-Collections" transform="translate(-811.000000, -316.000000)" fill="#FFFFFF" fill-rule="nonzero">
            <g id="Component-1-–-80" transform="translate(754.455080, 293.000000)">
                <g id="plus" transform="translate(57.999990, 24.064450)">
                    <path d="M10.9311698,-0.99555181 C4.33914357,-0.99555181 -1.00493025,4.34607956 -1.00493025,10.93555 C-1.00493025,17.5250204 4.33914357,22.8666518 10.9311698,22.8666518 C17.523196,22.8666518 22.8672698,17.5250204 22.8672698,10.93555 C22.8672698,4.34607956 17.523196,-0.99555181 10.9311698,-0.99555181 Z M10.9311698,1.00444819 C16.4188311,1.00444819 20.8672698,5.45085378 20.8672698,10.93555 C20.8672698,16.4202462 16.4188311,20.8666518 10.9311698,20.8666518 C5.44350845,20.8666518 0.995069752,16.4202462 0.995069752,10.93555 C0.995069752,5.45085378 5.44350845,1.00444819 10.9311698,1.00444819 Z" id="Path-18"></path>
                    <path d="M10.93556,3.93555 C11.4483958,3.93555 11.8710672,4.32159019 11.9288323,4.81892887 L11.93556,4.93555 L11.93556,16.93555 C11.93556,17.4878347 11.4878447,17.93555 10.93556,17.93555 C10.4227242,17.93555 10.0000528,17.5495098 9.94228773,17.0521711 L9.93556,16.93555 L9.93556,4.93555 C9.93556,4.38326525 10.3832753,3.93555 10.93556,3.93555 Z" id="Path-19"></path>
                    <path d="M16.93619,9.93555 C17.4884747,9.93555 17.93619,10.3832653 17.93619,10.93555 C17.93619,11.4483858 17.5501498,11.8710572 17.0528111,11.9288223 L16.93619,11.93555 L4.93619,11.93555 C4.38390525,11.93555 3.93619,11.4878347 3.93619,10.93555 C3.93619,10.4227142 4.32223019,10.0000428 4.81956887,9.94227773 L4.93619,9.93555 L16.93619,9.93555 Z" id="Path-20"></path>
                </g>
            </g>
        </g>
    </g>
</svg>